<svg width="39" height="37" fill="none" xmlns="http://www.w3.org/2000/svg"><path d="M15.4 33.22h8.35V21.06H15.4v12.16zm6.84-1.48h-5.32v-9.2h5.27v9.2h.05z" fill="#81B3D2"/><path d="M37.9 20.04l1.1-1.07-5.17-5.03V.2h-7.2v6.72L19.47 0 0 19.03l1.1 1.06 4.07-3.96v19.23H3.13v1.47H36.5v-1.47h-2.66V16.08l4.07 3.96zM28.14 1.73h4.13v10.73l-4.13-4.02V1.73zm4.18 33.57H6.73V14.6L19.47 2.14l12.8 12.46v20.7h.05z" fill="#81B3D2"/><path d="M15.56 13.84a4.01 4.01 0 004.02 3.96 4.03 4.03 0 004.07-3.96 3.98 3.98 0 00-4.07-3.92 3.94 3.94 0 00-4.02 3.92zm4.02-2.55a2.59 2.59 0 012.6 2.55 2.58 2.58 0 01-2.6 2.54 2.59 2.59 0 01-2.61-2.54c0-1.38 1.2-2.55 2.6-2.55zM10.39 21.06H8.82v1.99h1.57v-1.99zM13.47 21.06H11.9v1.99h1.57v-1.99zM10.39 24.11H8.82v1.99h1.57V24.1zM13.47 24.11H11.9v1.99h1.57V24.1zM27.04 21.06h-1.56v1.99h1.56v-1.99zM30.18 21.06H28.6v1.99h1.57v-1.99zM27.04 24.11h-1.56v1.99h1.56V24.1zM30.18 24.11H28.6v1.99h1.57V24.1z" fill="#81B3D2"/></svg>